HIERARCHY
ROOT Hips
{
	OFFSET 0.00000 0.00000 0.00000
	CHANNELS 6 Xposition Yposition Zposition Yrotation Zrotation Xrotation 
	JOINT Lumbar
	{
		OFFSET 0 0 0
		CHANNELS 3 Zrotation Xrotation Yrotation
		JOINT Neck
		{
			OFFSET 0.00 0.2701 0.00
			CHANNELS 3 Zrotation Xrotation Yrotation
			End Site
			{
				OFFSET 0.00 0.1379 0.00
			}
		}
		JOINT RightShoulder
		{
			OFFSET 0.0119 0.2289 0.1181
			CHANNELS 3 Zrotation Xrotation Yrotation
			JOINT RightElbow
			{
				OFFSET 0.00 -0.1475 0.00
				CHANNELS 2 Zrotation Yrotation
				JOINT RightWrist
				{
					OFFSET 0.00 -0.1605 0.00
					CHANNELS 2 Zrotation Xrotation
					End Site
					{
						OFFSET 0.0040 -0.1068 0.0006
					}
				}
			}
		}
		JOINT LeftShoulder
		{
			OFFSET 0.0119 0.2289 -0.1181
			CHANNELS 3 Zrotation Xrotation Yrotation
			JOINT LeftElbow
			{
				OFFSET 0.00 -0.1475 0.00
				CHANNELS 2 Zrotation Yrotation
				JOINT LeftWrist
				{
					OFFSET 0.00 -0.1605 0.00
					CHANNELS 2 Zrotation Xrotation
					End Site
					{
						OFFSET 0.0040 -0.1068 -0.0006
					}
				}
			}
		}
	}
	JOINT RightHip
	{
		OFFSET 0.0316 -0.0424 0.0458
		CHANNELS 3 Zrotation Xrotation Yrotation
		JOINT RightKnee
		{
			OFFSET 0.00 -0.2438 0.00
			CHANNELS 1 Zrotation
			JOINT RightAnkle
			{
				OFFSET 0.00 -0.2449 0.00
				CHANNELS 3 Zrotation Xrotation Yrotation
				End Site
				{
					OFFSET 0.1237 -0.0542 0.0051
				}
			}
		}
	}
	JOINT LeftHip
	{
		OFFSET 0.0316 -0.0424 -0.0458
		CHANNELS 3 Zrotation Xrotation Yrotation
		JOINT LeftKnee
		{
			OFFSET 0.00 -0.2438 0.00
			CHANNELS 1 Zrotation
			JOINT LeftAnkle
			{
				OFFSET 0.00 -0.2449 0.00
				CHANNELS 3 Zrotation Xrotation Yrotation
				End Site
				{
					OFFSET 0.1237 -0.0542 -0.0051
				}
			}
		}
	}
}
MOTION
Frames: 11
Frame Time: 0.02
-0.07059 -0.03296 0.65279 4.61462 -18.02334 -5.08318 37.44984 0.23652 -1.93809 -13.70126 -0.65347 -2.11994 8.3749 -20.50974 34.37029 101.77649 92.9321 6.59792 1.87238 8.28013 22.81759 -41.37467 104.71517 -84.44568 0.98565 0.17425 42.20126 -1.13323 -9.27816 -36.5641 -8.38562 -3.82777 -4.19434 36.49627 14.51717 7.66828 -26.1348 -8.54227 2.75292 3.66698
-0.07004 -0.03269 0.65136 4.75775 -17.86849 -5.31422 37.41091 0.30624 -2.2829 -13.79135 -0.68915 -2.11994 7.71606 -19.9871 33.91427 102.19159 91.11945 5.37114 1.47208 8.03951 21.70489 -40.22082 104.87677 -83.35404 -0.03967 0.58598 42.49457 -1.14468 -9.67639 -37.1146 -8.29184 -3.73285 -4.14179 36.42484 14.32551 6.68576 -26.37122 -8.57137 2.83183 3.71158
-0.0693 -0.03237 0.65013 4.88734 -17.73511 -5.55323 37.41224 0.40002 -2.67133 -13.96577 -0.71891 -2.11994 6.85768 -19.53075 33.55702 102.65404 89.55097 4.71532 0.90621 7.40112 20.84944 -39.00598 104.87724 -83.56547 -0.53809 0.89405 42.82017 -1.17515 -10.25637 -37.59975 -8.15689 -3.59829 -4.06727 36.36599 14.0978 5.42646 -26.59483 -8.62594 2.9369 3.77155
-0.06864 -0.03207 0.64883 5.02733 -17.59061 -5.78471 37.38855 0.48207 -3.04469 -14.0925 -0.75323 -2.11994 6.09729 -19.02796 33.15458 103.08243 87.8973 3.79658 0.42766 6.96276 19.88076 -37.86072 104.93732 -83.14536 -1.30486 1.2574 43.12923 -1.1902 -10.72395 -38.09257 -8.04496 -3.48407 -4.00418 36.29645 13.89432 4.33366 -26.82153 -8.66578 3.02647 3.82227
-0.06799 -0.03175 0.64747 5.14417 -17.44978 -6.0322 37.39299 0.56976 -3.39941 -14.26294 -0.77977 -2.11994 5.28965 -18.58943 32.7227 103.55824 86.09613 2.85733 -0.10285 6.39929 18.90218 -36.50084 105.05428 -82.81903 -1.98317 1.59752 43.44439 -1.23069 -11.31594 -38.68008 -7.91426 -3.35938 -3.93467 36.24233 13.6586 3.06935 -27.05848 -8.71942 3.13175 3.88277
-0.06727 -0.03148 0.64628 5.30819 -17.30765 -6.24799 37.34939 0.65065 -3.80214 -14.36145 -0.82095 -2.11994 4.54349 -18.03681 32.38467 103.94654 84.67385 2.10726 -0.56363 6.02004 18.00246 -35.5854 105.01519 -82.63501 -2.70536 1.95661 43.75578 -1.22493 -11.69401 -39.05314 -7.81306 -3.24746 -3.87348 36.16132 13.48106 2.09703 -27.27092 -8.75024 3.21025 3.92645
-0.06639 -0.03138 0.64549 5.60396 -17.15136 -6.37965 37.15215 0.70557 -4.33489 -14.23156 -0.9054 -2.11994 3.96499 -17.12742 32.31607 104.1068 84.25441 1.77578 -0.7969 6.23156 17.26752 -35.94715 104.57696 -82.52204 -3.70522 2.39863 44.04191 -1.07405 -11.4166 -38.8627 -7.8038 -3.17903 -3.84004 36.00193 13.47395 1.99086 -27.4261 -8.71092 3.20953 3.92027
-0.06544 -0.03135 0.64486 5.94884 -16.9944 -6.47823 36.90713 0.75278 -4.91295 -14.02704 -1.00456 -2.11994 3.46665 -16.10745 32.33736 104.17331 84.21126 1.61606 -0.95315 6.65119 16.60142 -36.75866 103.98743 -82.51863 -4.75711 2.86039 44.32467 -0.87836 -10.92027 -38.45624 -7.82567 -3.12517 -3.81587 35.81613 13.52635 2.1892 -27.55587 -8.64786 3.18072 3.89656
-0.06452 -0.03128 0.64417 6.27307 -16.84121 -6.58864 36.69116 0.80397 -5.46474 -13.86237 -1.09603 -2.11994 2.96636 -15.1533 32.29918 104.26793 83.98995 1.35662 -1.14102 6.99145 15.89543 -37.34583 103.47381 -82.4768 -5.76359 3.30873 44.6136 -0.71221 -10.53885 -38.14027 -7.83308 -3.06563 -3.78784 35.64374 13.55081 2.2534 -27.69295 -8.59615 3.16397 3.88065
-0.06361 -0.03122 0.64344 6.58931 -16.67337 -6.71302 36.44565 0.85378 -6.04165 -13.677 -1.1914 -2.11994 2.31234 -14.12978 32.34056 104.42718 83.80363 1.19819 -1.34908 7.25239 15.23114 -38.00998 102.92954 -82.42922 -6.84722 3.77421 44.88377 -0.50915 -10.10324 -37.85449 -7.84028 -3.00068 -3.75748 35.46526 13.57783 2.29089 -27.84792 -8.54291 3.15107 3.86595
-0.06266 -0.03116 0.64283 6.93452 -16.53651 -6.80013 36.24978 0.90464 -6.5769 -13.51427 -1.28235 -2.11994 2.00144 -13.23108 32.23874 104.42653 83.63449 0.87501 -1.49448 7.73389 14.49763 -38.627 102.40877 -82.4053 -7.78542 4.20776 45.19213 -0.37057 -9.72042 -37.45534 -7.85594 -2.95106 -3.73453 35.29366 13.6141 2.45886 -27.95918 -8.48697 3.12317 3.84439
